# xmcd
#
# Track frame offsets:
#	183
#	11718
#	21770
#	35090
#	46810
#	61560
#	73118
#	91668
#	101190
#	117005
#	129925
#	144045
#	154865
#	168040
#	181813
#	196928
#
# Disc length: 2807
#
# Revision: 2
# Processed by: cddbd v1.5.1PL0 Copyright (c) Steve Scherf et al.
# Submitted via: audiograbber 1.80.04
# Normalized: r1:DSETVAR1
#
DISCID=c00af510
DTITLE=Various Artist - 16 succès éternels volume 7
DYEAR=1990
DGENRE=Pop
TTITLE0=Charles Trenet - Boum!
TTITLE1=R Louis Lafforgue - Julie la rousse
TTITLE2=Georges Ulmer - Pigalle
TTITLE3=Charles Aznavour - J'aime Paris au mois de mai
TTITLE4=Edith Piaf - Padam ... Padam
TTITLE5=Geneviève Paradis - Sous les ponts de Paris
TTITLE6=Les compagnons de la chanson - Les 3 cloches
TTITLE7=Jean Sablon - Syracuse
TTITLE8=Luis Mariano - Etranger au paradis
TTITLE9=Line Renaud - Ma cabane au Canada
TTITLE10=Mistinguett - Mon homme
TTITLE11=François Deguelt - Le bal de la marine
TTITLE12=Lucienne Boyer - Parlez-moi d'amour
TTITLE13=Rina Ketty - Sombreros et mantilles
TTITLE14=Jean Gabin - Quand on s'promène au bord de l'eau
TTITLE15=André Claveau - Cerisiers roses et pommiers blancs
EXTD=
EXTT0=
EXTT1=
EXTT2=
EXTT3=
EXTT4=
EXTT5=
EXTT6=
EXTT7=
EXTT8=
EXTT9=
EXTT10=
EXTT11=
EXTT12=
EXTT13=
EXTT14=
EXTT15=
PLAYORDER=
